{
    "asset" : {
        "generator" : "Khronos glTF Blender I/O v1.8.19",
        "version" : "2.0"
    },
    "scene" : 0,
    "scenes" : [
        {
            "name" : "Scene",
            "nodes" : [
                0
            ]
        }
    ],
    "nodes" : [
        {
            "mesh" : 0,
            "name" : "Ship",
            "scale" : [
                0.5653184652328491,
                0.5653184652328491,
                0.5653184652328491
            ]
        }
    ],
    "materials" : [
        {
            "doubleSided" : true,
            "name" : "Material.001",
            "pbrMetallicRoughness" : {
                "baseColorFactor" : [
                    0.8000000715255737,
                    0.6013541221618652,
                    0,
                    1
                ],
                "metallicFactor" : 0,
                "roughnessFactor" : 0.5
            }
        },
        {
            "doubleSided" : true,
            "name" : "Material.002",
            "pbrMetallicRoughness" : {
                "baseColorFactor" : [
                    0,
                    0.5283942818641663,
                    1,
                    1
                ],
                "metallicFactor" : 0,
                "roughnessFactor" : 0.5
            }
        },
        {
            "doubleSided" : true,
            "name" : "Material.003",
            "pbrMetallicRoughness" : {
                "baseColorFactor" : [
                    0.0548175647854805,
                    0.015803199261426926,
                    0.2330116629600525,
                    1
                ],
                "metallicFactor" : 0,
                "roughnessFactor" : 0.5
            }
        },
        {
            "doubleSided" : true,
            "name" : "Material.004",
            "pbrMetallicRoughness" : {
                "baseColorFactor" : [
                    0.5841230750083923,
                    0.032827846705913544,
                    0.8000000715255737,
                    1
                ],
                "metallicFactor" : 0,
                "roughnessFactor" : 0.5
            }
        },
        {
            "doubleSided" : true,
            "name" : "Material.005",
            "pbrMetallicRoughness" : {
                "baseColorFactor" : [
                    0.011906513012945652,
                    0.03791105002164841,
                    0.19017496705055237,
                    1
                ],
                "metallicFactor" : 0,
                "roughnessFactor" : 0.5
            }
        }
    ],
    "meshes" : [
        {
            "name" : "Cube.001",
            "primitives" : [
                {
                    "attributes" : {
                        "POSITION" : 0,
                        "NORMAL" : 1,
                        "TEXCOORD_0" : 2
                    },
                    "indices" : 3,
                    "material" : 0
                },
                {
                    "attributes" : {
                        "POSITION" : 4,
                        "NORMAL" : 5,
                        "TEXCOORD_0" : 6
                    },
                    "indices" : 7,
                    "material" : 1
                },
                {
                    "attributes" : {
                        "POSITION" : 8,
                        "NORMAL" : 9,
                        "TEXCOORD_0" : 10
                    },
                    "indices" : 11,
                    "material" : 2
                },
                {
                    "attributes" : {
                        "POSITION" : 12,
                        "NORMAL" : 13,
                        "TEXCOORD_0" : 14
                    },
                    "indices" : 15,
                    "material" : 3
                },
                {
                    "attributes" : {
                        "POSITION" : 16,
                        "NORMAL" : 17,
                        "TEXCOORD_0" : 18
                    },
                    "indices" : 19,
                    "material" : 4
                }
            ]
        }
    ],
    "accessors" : [
        {
            "bufferView" : 0,
            "componentType" : 5126,
            "count" : 96,
            "max" : [
                0.6490195989608765,
                0.4073388874530792,
                1.4330997467041016
            ],
            "min" : [
                -0.6490195989608765,
                -0.014666542410850525,
                -0.027477562427520752
            ],
            "type" : "VEC3"
        },
        {
            "bufferView" : 1,
            "componentType" : 5126,
            "count" : 96,
            "type" : "VEC3"
        },
        {
            "bufferView" : 2,
            "componentType" : 5126,
            "count" : 96,
            "type" : "VEC2"
        },
        {
            "bufferView" : 3,
            "componentType" : 5123,
            "count" : 147,
            "type" : "SCALAR"
        },
        {
            "bufferView" : 4,
            "componentType" : 5126,
            "count" : 12,
            "max" : [
                0.2857486605644226,
                0.37309730052948,
                -0.027477562427520752
            ],
            "min" : [
                -0.2857486605644226,
                0.01998874545097351,
                -0.027477562427520752
            ],
            "type" : "VEC3"
        },
        {
            "bufferView" : 5,
            "componentType" : 5126,
            "count" : 12,
            "type" : "VEC3"
        },
        {
            "bufferView" : 6,
            "componentType" : 5126,
            "count" : 12,
            "type" : "VEC2"
        },
        {
            "bufferView" : 7,
            "componentType" : 5123,
            "count" : 18,
            "type" : "SCALAR"
        },
        {
            "bufferView" : 8,
            "componentType" : 5126,
            "count" : 48,
            "max" : [
                0.38460224866867065,
                0.40706682205200195,
                -0.027477562427520752
            ],
            "min" : [
                -0.38460224866867065,
                0.01055830717086792,
                -0.027477562427520752
            ],
            "type" : "VEC3"
        },
        {
            "bufferView" : 9,
            "componentType" : 5126,
            "count" : 48,
            "type" : "VEC3"
        },
        {
            "bufferView" : 10,
            "componentType" : 5126,
            "count" : 48,
            "type" : "VEC2"
        },
        {
            "bufferView" : 11,
            "componentType" : 5123,
            "count" : 72,
            "type" : "SCALAR"
        },
        {
            "bufferView" : 12,
            "componentType" : 5126,
            "count" : 96,
            "max" : [
                0.5029651522636414,
                0.49632546305656433,
                0.8109501004219055
            ],
            "min" : [
                -0.5029651522636414,
                0.01435941457748413,
                -0.027477562427520752
            ],
            "type" : "VEC3"
        },
        {
            "bufferView" : 13,
            "componentType" : 5126,
            "count" : 96,
            "type" : "VEC3"
        },
        {
            "bufferView" : 14,
            "componentType" : 5126,
            "count" : 96,
            "type" : "VEC2"
        },
        {
            "bufferView" : 15,
            "componentType" : 5123,
            "count" : 162,
            "type" : "SCALAR"
        },
        {
            "bufferView" : 16,
            "componentType" : 5126,
            "count" : 242,
            "max" : [
                0.6490195989608765,
                0.5141937732696533,
                1.4330997467041016
            ],
            "min" : [
                -0.6490195989608765,
                -0.014666542410850525,
                -0.027477562427520752
            ],
            "type" : "VEC3"
        },
        {
            "bufferView" : 17,
            "componentType" : 5126,
            "count" : 242,
            "type" : "VEC3"
        },
        {
            "bufferView" : 18,
            "componentType" : 5126,
            "count" : 242,
            "type" : "VEC2"
        },
        {
            "bufferView" : 19,
            "componentType" : 5123,
            "count" : 396,
            "type" : "SCALAR"
        }
    ],
    "bufferViews" : [
        {
            "buffer" : 0,
            "byteLength" : 1152,
            "byteOffset" : 0
        },
        {
            "buffer" : 0,
            "byteLength" : 1152,
            "byteOffset" : 1152
        },
        {
            "buffer" : 0,
            "byteLength" : 768,
            "byteOffset" : 2304
        },
        {
            "buffer" : 0,
            "byteLength" : 294,
            "byteOffset" : 3072
        },
        {
            "buffer" : 0,
            "byteLength" : 144,
            "byteOffset" : 3368
        },
        {
            "buffer" : 0,
            "byteLength" : 144,
            "byteOffset" : 3512
        },
        {
            "buffer" : 0,
            "byteLength" : 96,
            "byteOffset" : 3656
        },
        {
            "buffer" : 0,
            "byteLength" : 36,
            "byteOffset" : 3752
        },
        {
            "buffer" : 0,
            "byteLength" : 576,
            "byteOffset" : 3788
        },
        {
            "buffer" : 0,
            "byteLength" : 576,
            "byteOffset" : 4364
        },
        {
            "buffer" : 0,
            "byteLength" : 384,
            "byteOffset" : 4940
        },
        {
            "buffer" : 0,
            "byteLength" : 144,
            "byteOffset" : 5324
        },
        {
            "buffer" : 0,
            "byteLength" : 1152,
            "byteOffset" : 5468
        },
        {
            "buffer" : 0,
            "byteLength" : 1152,
            "byteOffset" : 6620
        },
        {
            "buffer" : 0,
            "byteLength" : 768,
            "byteOffset" : 7772
        },
        {
            "buffer" : 0,
            "byteLength" : 324,
            "byteOffset" : 8540
        },
        {
            "buffer" : 0,
            "byteLength" : 2904,
            "byteOffset" : 8864
        },
        {
            "buffer" : 0,
            "byteLength" : 2904,
            "byteOffset" : 11768
        },
        {
            "buffer" : 0,
            "byteLength" : 1936,
            "byteOffset" : 14672
        },
        {
            "buffer" : 0,
            "byteLength" : 792,
            "byteOffset" : 16608
        }
    ],
    "buffers" : [
        {
            "byteLength" : 17400,
            "uri" : "data:application/octet-stream;base64,"
        }
    ]
}
